<?xml version="1.0" encoding="utf-8" ?><svg xmlns="http://www.w3.org/2000/svg" xmlns:xlink="http://www.w3.org/1999/xlink" width="1024" height="1024" viewBox="0 0 1024 1024"><defs><linearGradient id="gradient_0" gradientUnits="userSpaceOnUse" x1="529.1825" y1="804.01508" x2="531.42035" y2="352.74829"><stop offset="0" stop-color="#FED700"/><stop offset="1" stop-color="#21B0FE"/></linearGradient></defs><path fill="url(#gradient_0)" d="M671.715 222.141C680.045 227.153 685.944 232.997 692.946 239.426C717.808 262.252 736.622 289.883 745.002 322.87C747.601 333.099 750.898 356.456 748.948 366.801C749.007 369.839 748.055 377.519 747.563 380.621C743.159 406.761 731.986 431.292 715.155 451.771C677.444 498.46 621.86 526.674 580.883 570.044C559.737 592.425 540.466 615.283 522.338 640.262C488.002 687.575 455.62 742.545 407.805 777.582C375.347 801.366 346.883 808.273 307.44 801.829C332.666 796.159 365.506 774.364 381.522 754.263C415.592 711.504 439.833 662.165 467.361 615.274C476.393 599.888 489.902 581.99 501.159 568.087C522.319 542.223 545.162 517.783 569.538 494.926C605.425 461.236 645.327 429.987 668.72 385.609C675.198 373.32 678.853 363.182 683.576 350.385C685.432 341.518 688.071 333.293 689.341 324.21C693.783 292.46 688.383 250.11 671.715 222.141Z"/><path fill="#21B0FE" d="M671.715 222.141C680.045 227.153 685.944 232.997 692.946 239.426C717.808 262.252 736.622 289.883 745.002 322.87C747.601 333.099 750.898 356.456 748.948 366.801C746.563 370.413 749.006 370.592 747.363 373.103L746.744 373.044C746.366 371.46 745.992 370.118 745.846 368.488L747.057 368.322L746.863 367.493L746.086 367.016L744.392 367.694L743.893 367.315C743.965 365.776 744.114 365.586 744.947 364.288C737.052 364.325 734.803 362.849 727.298 361.613C719.054 360.255 708.513 360.525 700.117 360.685C696.667 360.751 688.061 366.281 683.975 363.837C682.953 363.171 684.802 352.984 683.703 351.076C683.661 350.845 683.619 350.615 683.576 350.385C685.432 341.518 688.071 333.293 689.341 324.21C693.783 292.46 688.383 250.11 671.715 222.141Z"/><path fill="#21B0FE" d="M506.481 220.676C525.807 219.188 550.712 223.739 568.795 230.512C602.526 243.148 631.033 269.752 649.945 300.092C656.02 309.838 661.206 320.907 665.96 331.341C665.489 333.824 665.15 336.327 664.668 338.781C658.057 372.432 636.188 401.615 612.982 425.913C607.204 431.962 599.816 440.326 592.972 444.959C642.607 382.694 587.324 313.822 517.074 309.154C491.442 308.49 470.583 314.592 449.661 328.887C418.234 350.359 401.331 388.351 417.761 424.517C421.632 433.037 425.566 438.855 430.936 446.425C403.688 422.653 363.512 375.008 358.276 336.197C356.429 322.513 382.956 285.998 392.557 274.489C410.874 252.531 442.517 232.799 470.561 226.022C483.075 222.942 493.624 221.694 506.481 220.676Z"/><path fill="#21B0FE" d="M349.528 223.985L349.846 224.28C350.077 225.462 344.194 239.671 343.214 242.515C337.589 258.627 334.267 275.452 333.345 292.493C327.512 412.92 426.914 458.655 496.754 535.581C492.719 541.104 488.014 546.706 483.854 552.323C475.551 563.722 467.51 575.31 459.737 587.078L448.88 575.369C434.619 561.055 424.844 550.765 408.899 537.894C372.583 508.578 327.583 479.941 300.433 441.47C278.01 409.683 269.331 370.205 276.356 331.944C284.248 286.678 312.66 250.039 349.528 223.985Z"/><defs><linearGradient id="gradient_1" gradientUnits="userSpaceOnUse" x1="757.78217" y1="728.25385" x2="675.94391" y2="535.26398"><stop offset="0" stop-color="#FE218B"/><stop offset="1" stop-color="#ED00BA"/></linearGradient></defs><path fill="url(#gradient_1)" d="M606.88 563.277C609.916 564.338 630.252 585.591 634.193 589.141C667.277 618.939 702.841 646.128 746.072 659.084C786.279 671.134 827.914 659.516 840.482 616.033C848.555 643.632 840.204 668.061 823.414 690.278C816.467 699.116 803.924 708.332 794.165 713.665C762.014 731.237 721.8 724.54 690.192 709.297C652.622 691.181 621.488 663.108 595.299 631.025C586.713 620.505 578.71 611.139 572.212 599.12C580.021 589.325 597.589 572.872 606.88 563.277Z"/><defs><linearGradient id="gradient_2" gradientUnits="userSpaceOnUse" x1="262.4321" y1="727.06891" x2="350.62366" y2="533.92084"><stop offset="0" stop-color="#F6E000"/><stop offset="1" stop-color="#21B0FE"/></linearGradient></defs><path fill="url(#gradient_2)" d="M416.802 562.977C424.384 566.903 446.192 592.588 452.807 600.316C432.108 627.029 414.331 647.954 388.986 670.48C337.291 716.425 256.84 753.158 201.565 690.311C195.931 684.068 191.272 677.011 187.745 669.377C181.561 656.1 179.028 642.528 180.298 627.931C180.497 625.643 180.867 618.006 182.929 617.105C183.83 622.8 188.58 633.442 192.315 637.985C235.875 690.977 311.661 650.391 354.988 618.377C371.882 605.895 386.813 591.443 401.721 576.75C406.127 572.408 411.49 567.029 416.391 563.284L416.802 562.977Z"/><defs><linearGradient id="gradient_3" gradientUnits="userSpaceOnUse" x1="849.08386" y1="486.92407" x2="645.10486" y2="445.94254"><stop offset="0" stop-color="#F8CA02"/><stop offset="1" stop-color="#21B0FE"/></linearGradient></defs><path fill="url(#gradient_3)" d="M836.324 375.692C856.186 386.702 861.759 423.609 858.677 443.86C841.777 554.896 708.535 561.594 622.198 549.805C630.713 542.685 641.622 534.838 650.608 528.254C668.215 514.968 685.391 501.478 701.149 485.968C741.891 488.272 806.1 489.867 834.318 455.307C812.611 466.78 798.066 470.822 773.361 471.966C794.867 465.206 807.007 461.362 821.647 441.852C833.949 425.458 839.659 395.657 836.324 375.692Z"/><defs><linearGradient id="gradient_4" gradientUnits="userSpaceOnUse" x1="166.60068" y1="467.95801" x2="398.24561" y2="460.76736"><stop offset="0" stop-color="#F6E000"/><stop offset="1" stop-color="#21B0FE"/></linearGradient></defs><path fill="url(#gradient_4)" d="M186.458 376.413C187.358 377.328 186.933 397.941 187.158 400.885C187.881 411.025 190.443 420.95 194.718 430.173C206.879 456.473 223.701 463.609 248.902 472.774C224.067 470.949 210.289 465.971 188.289 455.842C195.051 461.655 201.932 467.084 209.838 471.417C234.832 485.115 264.544 487.977 292.595 487.484C302.898 487.304 313.312 486.178 323.689 486.027C329.825 490.801 336.364 496.811 342.483 501.847C353.229 510.564 364.077 519.155 375.025 527.618C384.355 534.968 393.704 542.639 402.95 550.112L402.734 550.603C396.319 552.511 351.539 552.947 342.915 552.943C289.202 553.05 235.02 546.5 195.27 506.244C162.769 473.329 150.562 411.245 186.458 376.413Z"/><path fill="#ED00BA" d="M557.569 616.832C560.202 618.126 570.634 639.166 572.605 642.848C609.606 711.973 641.195 773.55 718.078 802.833C715.714 802.934 712.86 803.233 710.5 803.578C700.991 804.968 692.286 804.92 682.737 804.423C672.399 803.04 661.527 801.375 651.598 797.574C607.442 780.668 574.327 741.539 546.658 704.853C537.594 692.835 530.152 679.038 521.339 667.627C532.151 648.856 544.501 633.809 557.569 616.832Z"/></svg>